<svg width="431" height="92" viewBox="0 0 431 92" fill="none" xmlns="http://www.w3.org/2000/svg">
<path d="M8.72 70.28L8.84 69H14.68V70.12C14.616 70.3333 14.5067 70.5573 14.352 70.792C14.2027 71.0213 14.024 71.2533 13.816 71.488C13.6133 71.7227 13.3893 71.9573 13.144 72.192C12.904 72.4213 12.6613 72.64 12.416 72.848L11.36 73.44C11.4133 73.4293 11.48 73.424 11.56 73.424C11.6453 73.4187 11.7253 73.416 11.8 73.416C12.3173 73.416 12.7973 73.48 13.24 73.608C13.688 73.736 14.0747 73.9307 14.4 74.192C14.7307 74.448 14.9893 74.776 15.176 75.176C15.368 75.5707 15.464 76.0373 15.464 76.576C15.464 77.0933 15.368 77.5627 15.176 77.984C14.984 78.4053 14.72 78.7813 14.384 79.112C14.0533 79.4373 13.664 79.72 13.216 79.96C12.768 80.1947 12.288 80.3893 11.776 80.544C11.2693 80.6987 10.744 80.8133 10.2 80.888C9.656 80.9627 9.12267 81 8.6 81V79.72C9.04267 79.704 9.47733 79.664 9.904 79.6C10.3307 79.536 10.736 79.448 11.12 79.336C11.504 79.2187 11.8587 79.0773 12.184 78.912C12.5093 78.7467 12.7893 78.5547 13.024 78.336C13.264 78.112 13.4507 77.8613 13.584 77.584C13.7173 77.3067 13.784 76.9973 13.784 76.656C13.784 76.272 13.7013 75.952 13.536 75.696C13.376 75.44 13.1547 75.2373 12.872 75.088C12.5893 74.9387 12.256 74.8347 11.872 74.776C11.4933 74.712 11.0853 74.68 10.648 74.68C10.4773 74.68 10.2907 74.6853 10.088 74.696C9.89067 74.7013 9.712 74.7093 9.552 74.72V73.48C9.77067 73.32 10.008 73.1387 10.264 72.936C10.52 72.7333 10.7787 72.5227 11.04 72.304C11.3013 72.08 11.5547 71.856 11.8 71.632C12.0507 71.4027 12.2773 71.1867 12.48 70.984C12.6827 70.776 12.8533 70.584 12.992 70.408C13.1307 70.232 13.2213 70.0827 13.264 69.96L12.048 70.28H8.72ZM21.1703 73.144C21.2076 73.1227 21.2716 73.088 21.3623 73.04C21.4583 72.992 21.5756 72.944 21.7143 72.896C21.8529 72.848 22.0103 72.808 22.1863 72.776C22.3676 72.7387 22.5676 72.72 22.7863 72.72C23.3409 72.72 23.8343 72.808 24.2663 72.984C24.7036 73.1547 25.0716 73.392 25.3703 73.696C25.6743 73.9947 25.9036 74.3467 26.0583 74.752C26.2183 75.1573 26.2983 75.5893 26.2983 76.048C26.2983 76.5867 26.2023 77.0853 26.0103 77.544C25.8183 77.9973 25.5543 78.408 25.2183 78.776C24.8876 79.1387 24.4983 79.4587 24.0503 79.736C23.6076 80.0133 23.1329 80.248 22.6263 80.44C22.1249 80.6267 21.6076 80.768 21.0743 80.864C20.5409 80.9547 20.0183 81 19.5063 81V79.72C19.9063 79.7093 20.3116 79.6613 20.7223 79.576C21.1329 79.4853 21.5276 79.368 21.9062 79.224C22.2903 79.0747 22.6476 78.896 22.9783 78.688C23.3143 78.48 23.6049 78.2507 23.8503 78C24.1009 77.744 24.2983 77.4667 24.4423 77.168C24.5863 76.8693 24.6583 76.552 24.6583 76.216C24.6583 75.944 24.6129 75.68 24.5223 75.424C24.4369 75.168 24.3063 74.9413 24.1303 74.744C23.9596 74.5413 23.7436 74.3787 23.4823 74.256C23.2209 74.1333 22.9169 74.072 22.5703 74.072C22.2983 74.072 22.0529 74.0907 21.8343 74.128C21.6156 74.16 21.4183 74.2027 21.2423 74.256C21.0716 74.304 20.9249 74.36 20.8023 74.424C20.6796 74.488 20.5783 74.5467 20.4983 74.6H19.5063V69H25.5303V70.28H21.1703V73.144ZM33.6125 81.136C33.1592 81.136 32.7432 81.0507 32.3645 80.88C31.9858 80.704 31.6445 80.4667 31.3405 80.168C31.0418 79.8693 30.7778 79.52 30.5485 79.12C30.3245 78.72 30.1352 78.2933 29.9805 77.84C29.8312 77.3813 29.7192 76.912 29.6445 76.432C29.5698 75.9467 29.5325 75.4693 29.5325 75C29.5325 74.52 29.5645 74.0347 29.6285 73.544C29.6925 73.0533 29.7938 72.5813 29.9325 72.128C30.0712 71.6747 30.2472 71.2507 30.4605 70.856C30.6792 70.456 30.9378 70.1093 31.2365 69.816C31.5405 69.5227 31.8872 69.2907 32.2765 69.12C32.6712 68.9493 33.1165 68.864 33.6125 68.864C34.0658 68.864 34.4818 68.952 34.8605 69.128C35.2392 69.2987 35.5778 69.5333 35.8765 69.832C36.1805 70.1307 36.4445 70.48 36.6685 70.88C36.8978 71.28 37.0872 71.7093 37.2365 72.168C37.3912 72.6213 37.5058 73.0907 37.5805 73.576C37.6552 74.0613 37.6925 74.536 37.6925 75C37.6925 75.48 37.6605 75.9653 37.5965 76.456C37.5325 76.9467 37.4312 77.4187 37.2925 77.872C37.1538 78.3253 36.9752 78.752 36.7565 79.152C36.5432 79.5467 36.2845 79.8907 35.9805 80.184C35.6818 80.4773 35.3352 80.7093 34.9405 80.88C34.5458 81.0507 34.1032 81.136 33.6125 81.136ZM31.1885 74.656C31.1885 74.9653 31.1992 75.3067 31.2205 75.68C31.2418 76.048 31.2845 76.4213 31.3485 76.8C31.4125 77.1733 31.5005 77.536 31.6125 77.888C31.7298 78.24 31.8792 78.5547 32.0605 78.832C32.2472 79.104 32.4712 79.3227 32.7325 79.488C32.9992 79.6533 33.3138 79.736 33.6765 79.736C34.0018 79.736 34.2845 79.6747 34.5245 79.552C34.7698 79.424 34.9805 79.2533 35.1565 79.04C35.3325 78.8213 35.4765 78.5707 35.5885 78.288C35.7005 78 35.7885 77.6933 35.8525 77.368C35.9218 77.0427 35.9698 76.7067 35.9965 76.36C36.0232 76.0133 36.0365 75.6747 36.0365 75.344C36.0365 75.0347 36.0258 74.696 36.0045 74.328C35.9832 73.9547 35.9405 73.5813 35.8765 73.208C35.8125 72.8347 35.7218 72.472 35.6045 72.12C35.4925 71.7627 35.3432 71.448 35.1565 71.176C34.9752 70.904 34.7512 70.6853 34.4845 70.52C34.2232 70.3547 33.9112 70.272 33.5485 70.272C33.2232 70.272 32.9378 70.336 32.6925 70.464C32.4525 70.5867 32.2445 70.7547 32.0685 70.968C31.8925 71.1813 31.7485 71.432 31.6365 71.72C31.5245 72.008 31.4338 72.3147 31.3645 72.64C31.3005 72.9653 31.2552 73.3013 31.2285 73.648C31.2018 73.9893 31.1885 74.3253 31.1885 74.656ZM42.8388 77.992C42.8388 78.344 42.8574 78.64 42.8948 78.88C42.9374 79.1147 42.9961 79.3067 43.0708 79.456C43.1508 79.6 43.2468 79.704 43.3588 79.768C43.4761 79.8267 43.6094 79.856 43.7587 79.856C43.8761 79.856 43.9828 79.8507 44.0788 79.84C44.1748 79.824 44.2574 79.8053 44.3268 79.784C44.4068 79.7627 44.4788 79.7387 44.5428 79.712L45.0948 80.68C45.0521 80.7227 44.9828 80.7707 44.8868 80.824C44.7961 80.872 44.6868 80.92 44.5588 80.968C44.4308 81.016 44.2841 81.056 44.1188 81.088C43.9588 81.12 43.7854 81.136 43.5988 81.136C43.1188 81.136 42.7294 81.048 42.4308 80.872C42.1321 80.696 41.9001 80.456 41.7348 80.152C41.5694 79.848 41.4574 79.496 41.3988 79.096C41.3454 78.6907 41.3188 78.2587 41.3188 77.8V73.48H40.1188V72.2H41.3188V70.528L42.7988 69.64V72.2H45.5188L45.3588 73.48H42.8388V77.992ZM49.745 81H48.225V69.8L48.065 68.2L49.745 68.04V73.4L50.457 72.48C50.665 72.3627 50.913 72.264 51.201 72.184C51.489 72.104 51.8037 72.064 52.145 72.064C52.945 72.064 53.5583 72.3307 53.985 72.864C54.4117 73.3973 54.625 74.1627 54.625 75.16V81H53.105V75.328C53.105 74.9707 53.073 74.6667 53.009 74.416C52.9503 74.1653 52.865 73.96 52.753 73.8C52.641 73.64 52.5023 73.5253 52.337 73.456C52.1717 73.3813 51.985 73.344 51.777 73.344C51.569 73.344 51.3663 73.3707 51.169 73.424C50.9717 73.472 50.785 73.5413 50.609 73.632C50.433 73.7173 50.2703 73.8213 50.121 73.944C49.977 74.0613 49.8517 74.192 49.745 74.336V81ZM69.7725 70.808C69.4098 70.5947 69.0605 70.4373 68.7245 70.336C68.3938 70.2347 68.0232 70.184 67.6125 70.184C67.3245 70.184 67.0418 70.2133 66.7645 70.272C66.4925 70.3307 66.2498 70.4267 66.0365 70.56C65.8285 70.688 65.6578 70.8587 65.5245 71.072C65.3965 71.28 65.3325 71.536 65.3325 71.84C65.3325 72.1387 65.4125 72.3973 65.5725 72.616C65.7325 72.8347 65.9405 73.032 66.1965 73.208C66.4578 73.3787 66.7538 73.5387 67.0845 73.688C67.4205 73.832 67.7618 73.9867 68.1085 74.152C68.4552 74.312 68.7938 74.4907 69.1245 74.688C69.4605 74.88 69.7565 75.1093 70.0125 75.376C70.2738 75.6373 70.4845 75.944 70.6445 76.296C70.8045 76.648 70.8845 77.064 70.8845 77.544C70.8845 77.9387 70.8312 78.304 70.7245 78.64C70.6178 78.9707 70.4685 79.2693 70.2765 79.536C70.0898 79.8027 69.8658 80.0373 69.6045 80.24C69.3432 80.4373 69.0578 80.6027 68.7485 80.736C68.4392 80.8693 68.1112 80.968 67.7645 81.032C67.4232 81.1013 67.0738 81.136 66.7165 81.136C65.4738 81.1147 64.3912 80.8187 63.4685 80.248L64.1965 79.048C64.3032 79.1173 64.4418 79.1973 64.6125 79.288C64.7885 79.3733 64.9832 79.456 65.1965 79.536C65.4098 79.616 65.6365 79.6827 65.8765 79.736C66.1165 79.7893 66.3592 79.816 66.6045 79.816C66.9352 79.816 67.2578 79.776 67.5725 79.696C67.8925 79.6107 68.1752 79.4827 68.4205 79.312C68.6712 79.136 68.8712 78.9147 69.0205 78.648C69.1752 78.3813 69.2525 78.064 69.2525 77.696C69.2525 77.3493 69.1725 77.048 69.0125 76.792C68.8525 76.5307 68.6418 76.2987 68.3805 76.096C68.1245 75.888 67.8285 75.7013 67.4925 75.536C67.1618 75.3707 66.8232 75.2053 66.4765 75.04C66.1298 74.8747 65.7885 74.7013 65.4525 74.52C65.1218 74.3387 64.8258 74.1333 64.5645 73.904C64.3085 73.6747 64.1005 73.4133 63.9405 73.12C63.7805 72.8213 63.7005 72.472 63.7005 72.072C63.7005 71.5547 63.8072 71.0987 64.0205 70.704C64.2338 70.304 64.5138 69.968 64.8605 69.696C65.2125 69.424 65.6098 69.2187 66.0525 69.08C66.4952 68.936 66.9458 68.864 67.4045 68.864C68.5405 68.864 69.5885 69.184 70.5485 69.824L69.7725 70.808ZM75.2294 79.72H76.5414C77.032 79.72 77.456 79.64 77.8134 79.48C78.176 79.3147 78.472 79.0853 78.7014 78.792C78.936 78.4987 79.1094 78.1467 79.2214 77.736C79.3334 77.3253 79.3894 76.872 79.3894 76.376C79.3894 75.8533 79.3387 75.4027 79.2374 75.024C79.136 74.64 78.9974 74.3253 78.8214 74.08C78.6454 73.8293 78.44 73.6453 78.2054 73.528C77.976 73.4053 77.7307 73.344 77.4694 73.344C77.208 73.344 76.9627 73.3787 76.7334 73.448C76.5094 73.512 76.3014 73.5947 76.1094 73.696C75.9227 73.7973 75.7547 73.9093 75.6054 74.032C75.456 74.1547 75.3307 74.272 75.2294 74.384V79.72ZM73.7094 85V72.2L75.2294 72.04V73.448L75.9894 72.432C76.144 72.3413 76.3627 72.2587 76.6454 72.184C76.9334 72.104 77.2854 72.064 77.7014 72.064C78.144 72.064 78.56 72.168 78.9494 72.376C79.3387 72.584 79.6774 72.88 79.9654 73.264C80.2587 73.648 80.488 74.112 80.6534 74.656C80.824 75.2 80.9094 75.808 80.9094 76.48C80.9094 77.136 80.8027 77.7413 80.5894 78.296C80.376 78.8453 80.072 79.3227 79.6774 79.728C79.288 80.128 78.8134 80.44 78.2534 80.664C77.6987 80.888 77.0774 81 76.3894 81H75.2294V85H73.7094ZM89.9311 79.968C89.7658 80.1387 89.5845 80.296 89.3871 80.44C89.1898 80.584 88.9711 80.7093 88.7311 80.816C88.4911 80.9173 88.2245 80.9947 87.9311 81.048C87.6431 81.1067 87.3205 81.136 86.9631 81.136C86.2538 81.136 85.6485 81.0107 85.1471 80.76C84.6458 80.5093 84.2351 80.1733 83.9151 79.752C83.6005 79.3307 83.3685 78.848 83.2191 78.304C83.0751 77.76 83.0031 77.192 83.0031 76.6C83.0031 76.2213 83.0378 75.848 83.1071 75.48C83.1765 75.1067 83.2805 74.752 83.4191 74.416C83.5578 74.08 83.7311 73.768 83.9391 73.48C84.1471 73.192 84.3898 72.944 84.6671 72.736C84.9445 72.528 85.2565 72.3653 85.6031 72.248C85.9551 72.1253 86.3418 72.064 86.7631 72.064C87.3391 72.064 87.8378 72.1573 88.2591 72.344C88.6805 72.5307 89.0298 72.792 89.3071 73.128C89.5845 73.464 89.7898 73.8667 89.9231 74.336C90.0565 74.8053 90.1231 75.3253 90.1231 75.896C90.1231 76.0613 90.1178 76.2427 90.1071 76.44C90.0965 76.6373 90.0805 76.824 90.0591 77H84.5231C84.5231 77.4 84.5765 77.7733 84.6831 78.12C84.7951 78.4667 84.9498 78.7707 85.1471 79.032C85.3445 79.288 85.5818 79.4907 85.8591 79.64C86.1418 79.784 86.4565 79.856 86.8031 79.856C87.1445 79.856 87.4405 79.832 87.6911 79.784C87.9471 79.7307 88.1658 79.6693 88.3471 79.6C88.5285 79.5253 88.6751 79.4507 88.7871 79.376C88.9045 79.3013 88.9951 79.2427 89.0591 79.2L89.9311 79.968ZM88.6031 75.8C88.6085 75.7413 88.6111 75.6827 88.6111 75.624C88.6165 75.5653 88.6191 75.5067 88.6191 75.448C88.6191 75.144 88.5845 74.864 88.5151 74.608C88.4458 74.352 88.3391 74.1307 88.1951 73.944C88.0565 73.752 87.8778 73.6027 87.6591 73.496C87.4405 73.3893 87.1818 73.336 86.8831 73.336C86.5258 73.336 86.2191 73.3947 85.9631 73.512C85.7125 73.624 85.4991 73.7707 85.3231 73.952C85.1525 74.128 85.0138 74.3227 84.9071 74.536C84.8058 74.7493 84.7285 74.952 84.6751 75.144L84.2591 76.016L85.6831 75.8H88.6031ZM97.956 73.976C97.748 73.7893 97.5 73.6373 97.212 73.52C96.9293 73.4027 96.636 73.344 96.332 73.344C95.884 73.344 95.5027 73.4293 95.188 73.6C94.8733 73.7653 94.6173 73.992 94.42 74.28C94.228 74.568 94.0867 74.904 93.996 75.288C93.9053 75.6667 93.86 76.0667 93.86 76.488C93.86 76.9253 93.9 77.344 93.98 77.744C94.0653 78.1387 94.2067 78.488 94.404 78.792C94.6013 79.096 94.8627 79.3387 95.188 79.52C95.5187 79.696 95.9293 79.784 96.42 79.784C96.8307 79.784 97.1773 79.736 97.46 79.64C97.748 79.544 97.9693 79.4427 98.124 79.336L98.7 80.464C98.4013 80.6667 98.052 80.8293 97.652 80.952C97.2573 81.0747 96.8093 81.136 96.308 81.136C95.6413 81.136 95.0573 81.0053 94.556 80.744C94.0547 80.4773 93.636 80.1253 93.3 79.688C92.9693 79.2453 92.7187 78.7387 92.548 78.168C92.3827 77.592 92.3 76.9973 92.3 76.384C92.3 75.8293 92.38 75.2933 92.54 74.776C92.7053 74.2533 92.9533 73.792 93.284 73.392C93.62 72.992 94.0413 72.672 94.548 72.432C95.06 72.1867 95.66 72.064 96.348 72.064C96.8387 72.064 97.276 72.1413 97.66 72.296C98.0493 72.4453 98.412 72.704 98.748 73.072L97.956 73.976ZM103.12 77.992C103.12 78.344 103.139 78.64 103.176 78.88C103.219 79.1147 103.277 79.3067 103.352 79.456C103.432 79.6 103.528 79.704 103.64 79.768C103.757 79.8267 103.891 79.856 104.04 79.856C104.157 79.856 104.264 79.8507 104.36 79.84C104.456 79.824 104.539 79.8053 104.608 79.784C104.688 79.7627 104.76 79.7387 104.824 79.712L105.376 80.68C105.333 80.7227 105.264 80.7707 105.168 80.824C105.077 80.872 104.968 80.92 104.84 80.968C104.712 81.016 104.565 81.056 104.4 81.088C104.24 81.12 104.067 81.136 103.88 81.136C103.4 81.136 103.011 81.048 102.712 80.872C102.413 80.696 102.181 80.456 102.016 80.152C101.851 79.848 101.739 79.496 101.68 79.096C101.627 78.6907 101.6 78.2587 101.6 77.8V73.48H100.4V72.2H101.6V70.528L103.08 69.64V72.2H105.8L105.64 73.48H103.12V77.992ZM112.274 73.416C112.061 73.416 111.85 73.4587 111.642 73.544C111.434 73.6293 111.234 73.744 111.042 73.888C110.85 74.032 110.669 74.2 110.498 74.392C110.328 74.584 110.17 74.7867 110.026 75V81H108.506V72.2L110.026 72.04V73.84L110.826 72.44C110.896 72.3973 110.981 72.3547 111.082 72.312C111.189 72.264 111.309 72.224 111.442 72.192C111.576 72.1547 111.717 72.1253 111.866 72.104C112.021 72.0773 112.178 72.064 112.338 72.064C112.578 72.064 112.778 72.0853 112.938 72.128C113.104 72.1707 113.226 72.2107 113.306 72.248L113.226 73.576C113.146 73.5493 113.026 73.5173 112.866 73.48C112.706 73.4373 112.509 73.416 112.274 73.416ZM120.293 72.2L121.812 72.04V81H120.293V79.696L119.805 80.552C119.709 80.616 119.594 80.6827 119.461 80.752C119.333 80.8213 119.186 80.8853 119.021 80.944C118.855 80.9973 118.674 81.0427 118.477 81.08C118.279 81.1173 118.071 81.136 117.852 81.136C117.426 81.136 117.058 81.0587 116.749 80.904C116.445 80.7493 116.194 80.5333 115.997 80.256C115.799 79.9787 115.653 79.6507 115.557 79.272C115.461 78.888 115.413 78.472 115.413 78.024V72.2L116.933 72.04V78.024C116.933 78.6 117.047 79.0507 117.277 79.376C117.511 79.696 117.877 79.856 118.373 79.856C118.554 79.856 118.733 79.8267 118.909 79.768C119.085 79.7093 119.255 79.6347 119.421 79.544C119.586 79.4533 119.741 79.3547 119.885 79.248C120.034 79.1413 120.17 79.0373 120.293 78.936V72.2ZM127.026 81H125.506V72.2L127.026 72.04V73.504L127.514 72.648C127.61 72.584 127.73 72.5173 127.874 72.448C128.018 72.3787 128.181 72.3173 128.362 72.264C128.544 72.2053 128.738 72.1573 128.946 72.12C129.154 72.0827 129.368 72.064 129.586 72.064C130.184 72.064 130.669 72.2107 131.042 72.504C131.416 72.792 131.658 73.1627 131.77 73.616L132.378 72.68C132.565 72.5307 132.829 72.392 133.17 72.264C133.512 72.1307 133.904 72.064 134.346 72.064C134.752 72.064 135.098 72.1333 135.386 72.272C135.674 72.4053 135.909 72.6 136.09 72.856C136.277 73.112 136.413 73.4213 136.498 73.784C136.584 74.1467 136.626 74.552 136.626 75V81H135.106V75.08C135.106 74.792 135.085 74.5413 135.042 74.328C135.005 74.1093 134.936 73.928 134.834 73.784C134.738 73.6347 134.608 73.5253 134.442 73.456C134.277 73.3813 134.072 73.344 133.826 73.344C133.672 73.344 133.509 73.3707 133.338 73.424C133.173 73.4773 133.005 73.5493 132.834 73.64C132.664 73.7253 132.496 73.8267 132.33 73.944C132.17 74.056 132.018 74.1707 131.874 74.288C131.89 74.4427 131.898 74.5733 131.898 74.68C131.904 74.7813 131.906 74.9147 131.906 75.08V81H130.386V75.08C130.386 74.504 130.29 74.072 130.098 73.784C129.906 73.4907 129.562 73.344 129.066 73.344C128.906 73.344 128.736 73.368 128.554 73.416C128.373 73.464 128.192 73.5307 128.01 73.616C127.834 73.7013 127.661 73.8 127.49 73.912C127.32 74.0187 127.165 74.1307 127.026 74.248V81ZM151.882 69H153.138L155.21 77.32L155.722 80.2H155.754L155.938 77.32L158.018 69H159.418L156.426 81H154.57L152.802 73.92L152.57 71.056L152.058 73.92L150.29 81H148.434L145.442 69L146.97 68.84L149.082 77.32L149.594 80.2H149.626L149.802 77.32L151.882 69ZM167.969 81H166.289V79.704L165.537 80.6C165.447 80.6693 165.343 80.736 165.225 80.8C165.108 80.864 164.988 80.9227 164.865 80.976C164.748 81.024 164.628 81.0613 164.505 81.088C164.388 81.12 164.279 81.136 164.177 81.136C163.777 81.136 163.393 81.0747 163.025 80.952C162.663 80.824 162.343 80.64 162.065 80.4C161.793 80.1547 161.575 79.8533 161.409 79.496C161.249 79.1333 161.169 78.7173 161.169 78.248C161.169 77.752 161.268 77.3227 161.465 76.96C161.668 76.592 161.924 76.288 162.233 76.048C162.548 75.8027 162.897 75.6213 163.281 75.504C163.665 75.3813 164.041 75.32 164.409 75.32C164.713 75.32 164.98 75.336 165.209 75.368C165.444 75.4 165.641 75.4373 165.801 75.48C165.988 75.528 166.151 75.5813 166.289 75.64V75.36C166.289 75.0453 166.271 74.7627 166.233 74.512C166.196 74.2613 166.119 74.0507 166.001 73.88C165.889 73.704 165.724 73.5707 165.505 73.48C165.292 73.3893 165.007 73.344 164.649 73.344C164.361 73.344 164.084 73.3653 163.817 73.408C163.551 73.4453 163.313 73.488 163.105 73.536C162.86 73.5947 162.633 73.656 162.425 73.72L161.849 72.648C162.084 72.5413 162.351 72.4453 162.649 72.36C162.905 72.2853 163.209 72.2187 163.561 72.16C163.913 72.096 164.303 72.064 164.729 72.064C165.343 72.064 165.849 72.1467 166.249 72.312C166.649 72.4773 166.964 72.7093 167.193 73.008C167.423 73.3067 167.583 73.6667 167.673 74.088C167.764 74.504 167.809 74.968 167.809 75.48V79.56L167.969 81ZM166.289 76.736C166.14 76.7147 165.98 76.6933 165.809 76.672C165.665 76.656 165.5 76.64 165.313 76.624C165.127 76.608 164.932 76.6 164.729 76.6C164.431 76.6 164.156 76.6293 163.905 76.688C163.66 76.7467 163.447 76.8427 163.265 76.976C163.084 77.104 162.943 77.272 162.841 77.48C162.74 77.688 162.689 77.9413 162.689 78.24C162.689 78.48 162.729 78.6987 162.809 78.896C162.889 79.0933 162.999 79.264 163.137 79.408C163.276 79.552 163.439 79.664 163.625 79.744C163.817 79.8187 164.023 79.856 164.241 79.856C164.343 79.856 164.449 79.8427 164.561 79.816C164.679 79.784 164.793 79.744 164.905 79.696C165.023 79.648 165.137 79.592 165.249 79.528C165.367 79.464 165.476 79.4 165.577 79.336C165.817 79.1813 166.055 79.0053 166.289 78.808V76.736ZM174.884 73.416C174.67 73.416 174.46 73.4587 174.252 73.544C174.044 73.6293 173.844 73.744 173.652 73.888C173.46 74.032 173.278 74.2 173.108 74.392C172.937 74.584 172.78 74.7867 172.636 75V81H171.116V72.2L172.636 72.04V73.84L173.436 72.44C173.505 72.3973 173.59 72.3547 173.692 72.312C173.798 72.264 173.918 72.224 174.052 72.192C174.185 72.1547 174.326 72.1253 174.476 72.104C174.63 72.0773 174.788 72.064 174.948 72.064C175.188 72.064 175.388 72.0853 175.548 72.128C175.713 72.1707 175.836 72.2107 175.916 72.248L175.836 73.576C175.756 73.5493 175.636 73.5173 175.476 73.48C175.316 73.4373 175.118 73.416 174.884 73.416ZM177.619 72.2H178.819V70.96C178.819 70.5067 178.867 70.1013 178.963 69.744C179.064 69.3867 179.221 69.0853 179.435 68.84C179.648 68.5893 179.92 68.3973 180.251 68.264C180.587 68.1307 180.989 68.064 181.459 68.064C181.699 68.064 181.917 68.0853 182.115 68.128C182.317 68.1653 182.501 68.216 182.667 68.28C182.837 68.344 182.992 68.4187 183.131 68.504C183.275 68.5893 183.403 68.6773 183.515 68.768L182.835 69.712C182.723 69.632 182.568 69.552 182.371 69.472C182.173 69.3867 181.955 69.344 181.715 69.344C181.256 69.344 180.904 69.4747 180.659 69.736C180.419 69.992 180.299 70.4267 180.299 71.04V72.2H182.619L182.459 73.48H180.339V81H178.819V73.48H177.619V72.2ZM191.485 81H189.805V79.704L189.053 80.6C188.962 80.6693 188.858 80.736 188.741 80.8C188.624 80.864 188.504 80.9227 188.381 80.976C188.264 81.024 188.144 81.0613 188.021 81.088C187.904 81.12 187.794 81.136 187.693 81.136C187.293 81.136 186.909 81.0747 186.541 80.952C186.178 80.824 185.858 80.64 185.581 80.4C185.309 80.1547 185.09 79.8533 184.925 79.496C184.765 79.1333 184.685 78.7173 184.685 78.248C184.685 77.752 184.784 77.3227 184.981 76.96C185.184 76.592 185.44 76.288 185.749 76.048C186.064 75.8027 186.413 75.6213 186.797 75.504C187.181 75.3813 187.557 75.32 187.925 75.32C188.229 75.32 188.496 75.336 188.725 75.368C188.96 75.4 189.157 75.4373 189.317 75.48C189.504 75.528 189.666 75.5813 189.805 75.64V75.36C189.805 75.0453 189.786 74.7627 189.749 74.512C189.712 74.2613 189.634 74.0507 189.517 73.88C189.405 73.704 189.24 73.5707 189.021 73.48C188.808 73.3893 188.522 73.344 188.165 73.344C187.877 73.344 187.6 73.3653 187.333 73.408C187.066 73.4453 186.829 73.488 186.621 73.536C186.376 73.5947 186.149 73.656 185.941 73.72L185.365 72.648C185.6 72.5413 185.866 72.4453 186.165 72.36C186.421 72.2853 186.725 72.2187 187.077 72.16C187.429 72.096 187.818 72.064 188.245 72.064C188.858 72.064 189.365 72.1467 189.765 72.312C190.165 72.4773 190.48 72.7093 190.709 73.008C190.938 73.3067 191.098 73.6667 191.189 74.088C191.28 74.504 191.325 74.968 191.325 75.48V79.56L191.485 81ZM189.805 76.736C189.656 76.7147 189.496 76.6933 189.325 76.672C189.181 76.656 189.016 76.64 188.829 76.624C188.642 76.608 188.448 76.6 188.245 76.6C187.946 76.6 187.672 76.6293 187.421 76.688C187.176 76.7467 186.962 76.8427 186.781 76.976C186.6 77.104 186.458 77.272 186.357 77.48C186.256 77.688 186.205 77.9413 186.205 78.24C186.205 78.48 186.245 78.6987 186.325 78.896C186.405 79.0933 186.514 79.264 186.653 79.408C186.792 79.552 186.954 79.664 187.141 79.744C187.333 79.8187 187.538 79.856 187.757 79.856C187.858 79.856 187.965 79.8427 188.077 79.816C188.194 79.784 188.309 79.744 188.421 79.696C188.538 79.648 188.653 79.592 188.765 79.528C188.882 79.464 188.992 79.4 189.093 79.336C189.333 79.1813 189.57 79.0053 189.805 78.808V76.736ZM198.399 73.416C198.186 73.416 197.975 73.4587 197.767 73.544C197.559 73.6293 197.359 73.744 197.167 73.888C196.975 74.032 196.794 74.2 196.623 74.392C196.453 74.584 196.295 74.7867 196.151 75V81H194.631V72.2L196.151 72.04V73.84L196.951 72.44C197.021 72.3973 197.106 72.3547 197.207 72.312C197.314 72.264 197.434 72.224 197.567 72.192C197.701 72.1547 197.842 72.1253 197.991 72.104C198.146 72.0773 198.303 72.064 198.463 72.064C198.703 72.064 198.903 72.0853 199.063 72.128C199.229 72.1707 199.351 72.2107 199.431 72.248L199.351 73.576C199.271 73.5493 199.151 73.5173 198.991 73.48C198.831 73.4373 198.634 73.416 198.399 73.416ZM207.666 79.968C207.5 80.1387 207.319 80.296 207.122 80.44C206.924 80.584 206.706 80.7093 206.466 80.816C206.226 80.9173 205.959 80.9947 205.666 81.048C205.378 81.1067 205.055 81.136 204.698 81.136C203.988 81.136 203.383 81.0107 202.882 80.76C202.38 80.5093 201.97 80.1733 201.65 79.752C201.335 79.3307 201.103 78.848 200.954 78.304C200.81 77.76 200.738 77.192 200.738 76.6C200.738 76.2213 200.772 75.848 200.842 75.48C200.911 75.1067 201.015 74.752 201.154 74.416C201.292 74.08 201.466 73.768 201.674 73.48C201.882 73.192 202.124 72.944 202.402 72.736C202.679 72.528 202.991 72.3653 203.338 72.248C203.69 72.1253 204.076 72.064 204.498 72.064C205.074 72.064 205.572 72.1573 205.994 72.344C206.415 72.5307 206.764 72.792 207.042 73.128C207.319 73.464 207.524 73.8667 207.658 74.336C207.791 74.8053 207.858 75.3253 207.858 75.896C207.858 76.0613 207.852 76.2427 207.842 76.44C207.831 76.6373 207.815 76.824 207.794 77H202.258C202.258 77.4 202.311 77.7733 202.418 78.12C202.53 78.4667 202.684 78.7707 202.882 79.032C203.079 79.288 203.316 79.4907 203.594 79.64C203.876 79.784 204.191 79.856 204.538 79.856C204.879 79.856 205.175 79.832 205.426 79.784C205.682 79.7307 205.9 79.6693 206.082 79.6C206.263 79.5253 206.41 79.4507 206.522 79.376C206.639 79.3013 206.73 79.2427 206.794 79.2L207.666 79.968ZM206.338 75.8C206.343 75.7413 206.346 75.6827 206.346 75.624C206.351 75.5653 206.354 75.5067 206.354 75.448C206.354 75.144 206.319 74.864 206.25 74.608C206.18 74.352 206.074 74.1307 205.93 73.944C205.791 73.752 205.612 73.6027 205.394 73.496C205.175 73.3893 204.916 73.336 204.618 73.336C204.26 73.336 203.954 73.3947 203.698 73.512C203.447 73.624 203.234 73.7707 203.058 73.952C202.887 74.128 202.748 74.3227 202.642 74.536C202.54 74.7493 202.463 74.952 202.41 75.144L201.993 76.016L203.418 75.8H206.338ZM215.824 81L219.208 70.6L219.488 69L221.224 68.84L225.208 81H223.608L222.424 77.4H218.464L217.296 81H215.824ZM220.44 70.12L220.152 72.2L218.856 76.2H222.032L220.728 72.2L220.44 70.12ZM229.354 79.72H230.666C231.157 79.72 231.581 79.64 231.938 79.48C232.301 79.3147 232.597 79.0853 232.826 78.792C233.061 78.4987 233.234 78.1467 233.346 77.736C233.458 77.3253 233.514 76.872 233.514 76.376C233.514 75.8533 233.464 75.4027 233.362 75.024C233.261 74.64 233.122 74.3253 232.946 74.08C232.77 73.8293 232.565 73.6453 232.33 73.528C232.101 73.4053 231.856 73.344 231.594 73.344C231.333 73.344 231.088 73.3787 230.858 73.448C230.634 73.512 230.426 73.5947 230.234 73.696C230.048 73.7973 229.88 73.9093 229.73 74.032C229.581 74.1547 229.456 74.272 229.354 74.384V79.72ZM227.834 85V72.2L229.354 72.04V73.448L230.114 72.432C230.269 72.3413 230.488 72.2587 230.77 72.184C231.058 72.104 231.41 72.064 231.826 72.064C232.269 72.064 232.685 72.168 233.074 72.376C233.464 72.584 233.802 72.88 234.09 73.264C234.384 73.648 234.613 74.112 234.778 74.656C234.949 75.2 235.034 75.808 235.034 76.48C235.034 77.136 234.928 77.7413 234.714 78.296C234.501 78.8453 234.197 79.3227 233.802 79.728C233.413 80.128 232.938 80.44 232.378 80.664C231.824 80.888 231.202 81 230.514 81H229.354V85H227.834ZM239.448 79.72H240.76C241.251 79.72 241.675 79.64 242.032 79.48C242.395 79.3147 242.691 79.0853 242.92 78.792C243.155 78.4987 243.328 78.1467 243.44 77.736C243.552 77.3253 243.608 76.872 243.608 76.376C243.608 75.8533 243.557 75.4027 243.456 75.024C243.355 74.64 243.216 74.3253 243.04 74.08C242.864 73.8293 242.659 73.6453 242.424 73.528C242.195 73.4053 241.949 73.344 241.688 73.344C241.427 73.344 241.181 73.3787 240.952 73.448C240.728 73.512 240.52 73.5947 240.328 73.696C240.141 73.7973 239.973 73.9093 239.824 74.032C239.675 74.1547 239.549 74.272 239.448 74.384V79.72ZM237.928 85V72.2L239.448 72.04V73.448L240.208 72.432C240.363 72.3413 240.581 72.2587 240.864 72.184C241.152 72.104 241.504 72.064 241.92 72.064C242.363 72.064 242.779 72.168 243.168 72.376C243.557 72.584 243.896 72.88 244.184 73.264C244.477 73.648 244.707 74.112 244.872 74.656C245.043 75.2 245.128 75.808 245.128 76.48C245.128 77.136 245.021 77.7413 244.808 78.296C244.595 78.8453 244.291 79.3227 243.896 79.728C243.507 80.128 243.032 80.44 242.472 80.664C241.917 80.888 241.296 81 240.608 81H239.448V85H237.928ZM248.745 77.992C248.745 78.344 248.764 78.64 248.801 78.88C248.844 79.1147 248.902 79.3067 248.977 79.456C249.057 79.6 249.153 79.704 249.265 79.768C249.382 79.8267 249.516 79.856 249.665 79.856C249.782 79.856 249.889 79.8507 249.985 79.84C250.081 79.824 250.164 79.8053 250.233 79.784C250.313 79.7627 250.385 79.7387 250.449 79.712L251.001 80.68C250.958 80.7227 250.889 80.7707 250.793 80.824C250.702 80.872 250.593 80.92 250.465 80.968C250.337 81.016 250.19 81.056 250.025 81.088C249.865 81.12 249.692 81.136 249.505 81.136C249.025 81.136 248.636 81.048 248.337 80.872C248.038 80.696 247.806 80.456 247.641 80.152C247.476 79.848 247.364 79.496 247.305 79.096C247.252 78.6907 247.225 78.2587 247.225 77.8V69.8L247.065 68.2L248.745 68.04V77.992ZM254.839 81H253.319V72.56L254.839 72.4V81ZM253.271 69H254.887V70.6H253.271V69ZM263.472 73.976C263.264 73.7893 263.016 73.6373 262.728 73.52C262.445 73.4027 262.152 73.344 261.848 73.344C261.4 73.344 261.018 73.4293 260.704 73.6C260.389 73.7653 260.133 73.992 259.936 74.28C259.744 74.568 259.602 74.904 259.512 75.288C259.421 75.6667 259.376 76.0667 259.376 76.488C259.376 76.9253 259.416 77.344 259.496 77.744C259.581 78.1387 259.722 78.488 259.92 78.792C260.117 79.096 260.378 79.3387 260.704 79.52C261.034 79.696 261.445 79.784 261.936 79.784C262.346 79.784 262.693 79.736 262.976 79.64C263.264 79.544 263.485 79.4427 263.64 79.336L264.216 80.464C263.917 80.6667 263.568 80.8293 263.168 80.952C262.773 81.0747 262.325 81.136 261.824 81.136C261.157 81.136 260.573 81.0053 260.072 80.744C259.57 80.4773 259.152 80.1253 258.816 79.688C258.485 79.2453 258.234 78.7387 258.064 78.168C257.898 77.592 257.816 76.9973 257.816 76.384C257.816 75.8293 257.896 75.2933 258.056 74.776C258.221 74.2533 258.469 73.792 258.8 73.392C259.136 72.992 259.557 72.672 260.064 72.432C260.576 72.1867 261.176 72.064 261.864 72.064C262.354 72.064 262.792 72.1413 263.176 72.296C263.565 72.4453 263.928 72.704 264.264 73.072L263.472 73.976ZM272.876 81H271.196V79.704L270.444 80.6C270.353 80.6693 270.249 80.736 270.132 80.8C270.014 80.864 269.894 80.9227 269.772 80.976C269.654 81.024 269.534 81.0613 269.412 81.088C269.294 81.12 269.185 81.136 269.084 81.136C268.684 81.136 268.3 81.0747 267.932 80.952C267.569 80.824 267.249 80.64 266.972 80.4C266.7 80.1547 266.481 79.8533 266.316 79.496C266.156 79.1333 266.076 78.7173 266.076 78.248C266.076 77.752 266.174 77.3227 266.372 76.96C266.574 76.592 266.83 76.288 267.14 76.048C267.454 75.8027 267.804 75.6213 268.188 75.504C268.572 75.3813 268.948 75.32 269.316 75.32C269.62 75.32 269.886 75.336 270.116 75.368C270.35 75.4 270.548 75.4373 270.708 75.48C270.894 75.528 271.057 75.5813 271.196 75.64V75.36C271.196 75.0453 271.177 74.7627 271.14 74.512C271.102 74.2613 271.025 74.0507 270.908 73.88C270.796 73.704 270.63 73.5707 270.412 73.48C270.198 73.3893 269.913 73.344 269.556 73.344C269.268 73.344 268.99 73.3653 268.724 73.408C268.457 73.4453 268.22 73.488 268.012 73.536C267.766 73.5947 267.54 73.656 267.332 73.72L266.756 72.648C266.99 72.5413 267.257 72.4453 267.556 72.36C267.812 72.2853 268.116 72.2187 268.468 72.16C268.82 72.096 269.209 72.064 269.636 72.064C270.249 72.064 270.756 72.1467 271.156 72.312C271.556 72.4773 271.87 72.7093 272.1 73.008C272.329 73.3067 272.489 73.6667 272.58 74.088C272.67 74.504 272.716 74.968 272.716 75.48V79.56L272.876 81ZM271.196 76.736C271.046 76.7147 270.886 76.6933 270.716 76.672C270.572 76.656 270.406 76.64 270.22 76.624C270.033 76.608 269.838 76.6 269.636 76.6C269.337 76.6 269.062 76.6293 268.812 76.688C268.566 76.7467 268.353 76.8427 268.172 76.976C267.99 77.104 267.849 77.272 267.748 77.48C267.646 77.688 267.596 77.9413 267.596 78.24C267.596 78.48 267.636 78.6987 267.716 78.896C267.796 79.0933 267.905 79.264 268.044 79.408C268.182 79.552 268.345 79.664 268.532 79.744C268.724 79.8187 268.929 79.856 269.148 79.856C269.249 79.856 269.356 79.8427 269.468 79.816C269.585 79.784 269.7 79.744 269.812 79.696C269.929 79.648 270.044 79.592 270.156 79.528C270.273 79.464 270.382 79.4 270.484 79.336C270.724 79.1813 270.961 79.0053 271.196 78.808V76.736ZM277.542 77.992C277.542 78.344 277.561 78.64 277.598 78.88C277.641 79.1147 277.699 79.3067 277.774 79.456C277.854 79.6 277.95 79.704 278.062 79.768C278.179 79.8267 278.313 79.856 278.462 79.856C278.579 79.856 278.686 79.8507 278.782 79.84C278.878 79.824 278.961 79.8053 279.03 79.784C279.11 79.7627 279.182 79.7387 279.246 79.712L279.798 80.68C279.755 80.7227 279.686 80.7707 279.59 80.824C279.499 80.872 279.39 80.92 279.262 80.968C279.134 81.016 278.987 81.056 278.822 81.088C278.662 81.12 278.489 81.136 278.302 81.136C277.822 81.136 277.433 81.048 277.134 80.872C276.835 80.696 276.603 80.456 276.438 80.152C276.273 79.848 276.161 79.496 276.102 79.096C276.049 78.6907 276.022 78.2587 276.022 77.8V73.48H274.822V72.2H276.022V70.528L277.502 69.64V72.2H280.222L280.062 73.48H277.542V77.992ZM284.448 81H282.928V72.56L284.448 72.4V81ZM282.88 69H284.496V70.6H282.88V69ZM291.417 81.136C290.825 81.136 290.284 81.0213 289.793 80.792C289.308 80.5573 288.889 80.2373 288.537 79.832C288.185 79.4213 287.91 78.9387 287.713 78.384C287.521 77.824 287.425 77.2213 287.425 76.576C287.425 75.9307 287.518 75.3333 287.705 74.784C287.892 74.2293 288.158 73.752 288.505 73.352C288.852 72.9467 289.27 72.632 289.761 72.408C290.257 72.1787 290.809 72.064 291.417 72.064C292.009 72.064 292.55 72.1787 293.041 72.408C293.532 72.632 293.953 72.9467 294.305 73.352C294.657 73.752 294.932 74.2293 295.129 74.784C295.326 75.3333 295.425 75.9307 295.425 76.576C295.425 77.2213 295.329 77.824 295.137 78.384C294.95 78.9387 294.684 79.4213 294.337 79.832C293.99 80.2373 293.569 80.5573 293.073 80.792C292.577 81.0213 292.025 81.136 291.417 81.136ZM293.905 76.792C293.905 76.36 293.857 75.936 293.761 75.52C293.67 75.104 293.524 74.7333 293.321 74.408C293.118 74.0773 292.857 73.8107 292.537 73.608C292.217 73.4053 291.833 73.304 291.385 73.304C290.958 73.304 290.59 73.392 290.281 73.568C289.972 73.744 289.718 73.9787 289.521 74.272C289.324 74.5653 289.177 74.8987 289.081 75.272C288.99 75.6453 288.945 76.0293 288.945 76.424C288.945 76.856 288.99 77.28 289.081 77.696C289.177 78.112 289.324 78.4827 289.521 78.808C289.724 79.1333 289.982 79.3973 290.297 79.6C290.617 79.7973 291.001 79.896 291.449 79.896C291.87 79.896 292.236 79.808 292.545 79.632C292.854 79.456 293.11 79.224 293.313 78.936C293.516 78.6427 293.665 78.3093 293.761 77.936C293.857 77.5627 293.905 77.1813 293.905 76.792ZM299.839 81H298.319V72.2L299.839 72.04V73.504L300.327 72.648C300.423 72.584 300.545 72.5173 300.695 72.448C300.844 72.3787 301.009 72.3173 301.191 72.264C301.377 72.2053 301.577 72.1573 301.791 72.12C302.004 72.0827 302.22 72.064 302.439 72.064C302.86 72.064 303.215 72.1333 303.503 72.272C303.796 72.4053 304.033 72.6 304.215 72.856C304.396 73.112 304.524 73.4213 304.599 73.784C304.679 74.1467 304.719 74.552 304.719 75V81H303.199V75C303.199 74.712 303.177 74.464 303.135 74.256C303.097 74.048 303.028 73.8773 302.927 73.744C302.831 73.6053 302.7 73.504 302.535 73.44C302.369 73.376 302.164 73.344 301.919 73.344C301.737 73.344 301.553 73.3733 301.367 73.432C301.18 73.4853 300.996 73.5573 300.815 73.648C300.639 73.7333 300.465 73.8293 300.295 73.936C300.129 74.0427 299.977 74.1467 299.839 74.248V81ZM312.101 73.648C312.005 73.6 311.89 73.552 311.757 73.504C311.623 73.456 311.485 73.4133 311.341 73.376C311.197 73.3387 311.05 73.3093 310.901 73.288C310.757 73.2667 310.618 73.256 310.485 73.256C309.919 73.256 309.519 73.3413 309.285 73.512C309.05 73.6773 308.933 73.928 308.933 74.264C308.933 74.488 309.01 74.6747 309.164 74.824C309.319 74.968 309.519 75.0987 309.765 75.216C310.01 75.3333 310.282 75.4453 310.581 75.552C310.885 75.6533 311.181 75.776 311.469 75.92C311.677 76.0213 311.887 76.1413 312.101 76.28C312.314 76.4187 312.506 76.5813 312.677 76.768C312.847 76.9547 312.986 77.1653 313.093 77.4C313.199 77.6347 313.253 77.8987 313.253 78.192C313.253 78.7307 313.162 79.1867 312.981 79.56C312.799 79.9333 312.551 80.2373 312.237 80.472C311.927 80.7013 311.562 80.8693 311.141 80.976C310.725 81.0827 310.279 81.136 309.805 81.136C309.623 81.136 309.418 81.1173 309.189 81.08C308.959 81.048 308.73 81.0027 308.501 80.944C308.271 80.88 308.053 80.8053 307.845 80.72C307.637 80.6347 307.463 80.544 307.325 80.448L307.853 79.392C307.981 79.456 308.133 79.5173 308.309 79.576C308.485 79.6293 308.666 79.6773 308.853 79.72C309.039 79.7627 309.223 79.7973 309.405 79.824C309.591 79.8453 309.757 79.856 309.901 79.856C310.146 79.856 310.381 79.832 310.605 79.784C310.834 79.7307 311.034 79.648 311.205 79.536C311.381 79.424 311.519 79.28 311.621 79.104C311.727 78.9227 311.781 78.7013 311.781 78.44C311.781 78.2427 311.738 78.0693 311.653 77.92C311.573 77.7707 311.461 77.64 311.317 77.528C311.178 77.4107 311.015 77.304 310.829 77.208C310.642 77.112 310.445 77.0213 310.237 76.936C310.029 76.8453 309.815 76.7547 309.597 76.664C309.378 76.568 309.17 76.464 308.973 76.352C308.786 76.2453 308.605 76.128 308.429 76C308.258 75.872 308.106 75.728 307.973 75.568C307.839 75.408 307.733 75.2293 307.653 75.032C307.573 74.8293 307.533 74.6 307.533 74.344C307.533 73.9387 307.605 73.592 307.749 73.304C307.893 73.0107 308.095 72.7733 308.357 72.592C308.618 72.4107 308.933 72.2773 309.301 72.192C309.669 72.1067 310.074 72.064 310.517 72.064C310.719 72.064 310.919 72.08 311.117 72.112C311.314 72.144 311.503 72.1867 311.685 72.24C311.866 72.288 312.031 72.3467 312.181 72.416C312.33 72.4853 312.458 72.5547 312.565 72.624L312.101 73.648Z" fill="#34649B"/>
<g filter="url(#filter0_d_7004_11966)">
<path d="M15.18 54C12.34 54 10.12 53.6 8.52 52.8C6.92 52 5.8 50.8 5.16 49.2C4.52 47.6 4.2 45.62 4.2 43.26V29.88C4.2 26.04 5.06 23.22 6.78 21.42C8.5 19.58 11.3 18.66 15.18 18.66H33.24C36 18.66 38.1 18.82 39.54 19.14C41.02 19.42 41.76 19.72 41.76 20.04L40.56 25.02C39.88 24.9 37.86 24.78 34.5 24.66C31.18 24.5 26.34 24.42 19.98 24.42H16.92C13.72 24.42 12.12 25.84 12.12 28.68V43.98C12.12 45.34 12.46 46.4 13.14 47.16C13.86 47.88 15.12 48.24 16.92 48.24H19.38C26.02 48.24 31.16 48.18 34.8 48.06C38.48 47.9 40.76 47.74 41.64 47.58L44.1 51.54C44.1 51.74 43.76 52.04 43.08 52.44C42.44 52.84 41.24 53.2 39.48 53.52C37.72 53.84 35.18 54 31.86 54H15.18ZM53.093 54V15.12H60.413V28.32C62.093 28 64.113 27.72 66.473 27.48C68.833 27.24 71.533 27.12 74.573 27.12H77.573C79.573 27.12 81.113 27.4 82.193 27.96C83.273 28.52 84.033 29.22 84.473 30.06C84.953 30.9 85.233 31.76 85.313 32.64C85.433 33.48 85.493 34.2 85.493 34.8V54H78.173V34.68C78.173 33.08 77.213 32.28 75.293 32.28H62.213C61.453 32.28 60.953 32.36 60.713 32.52C60.513 32.64 60.413 33 60.413 33.6V54H53.093ZM104.349 54C101.309 54 99.1094 53.3 97.7494 51.9C96.3894 50.46 95.7094 48.5 95.7094 46.02C95.7094 43.42 96.4094 41.42 97.8094 40.02C99.2494 38.62 101.429 37.92 104.349 37.92H107.409C110.409 37.92 113.109 38 115.509 38.16C117.909 38.32 119.889 38.48 121.449 38.64V34.68C121.449 34.32 121.409 33.96 121.329 33.6C121.249 33.2 121.009 32.88 120.609 32.64C120.209 32.4 119.529 32.28 118.569 32.28H115.569C111.209 32.28 107.569 32.36 104.649 32.52C101.729 32.64 99.7494 32.76 98.7094 32.88L98.0494 28.32C98.0494 27.76 99.5694 27.42 102.609 27.3C105.649 27.18 110.729 27.12 117.849 27.12H120.849C122.849 27.12 124.389 27.4 125.469 27.96C126.549 28.52 127.309 29.22 127.749 30.06C128.229 30.9 128.509 31.76 128.589 32.64C128.709 33.48 128.769 34.2 128.769 34.8V54H123.849L121.509 52.8C119.829 53.08 117.809 53.36 115.449 53.64C113.089 53.88 110.389 54 107.349 54H104.349ZM105.909 48.84H119.649C120.529 48.84 121.049 48.76 121.209 48.6C121.369 48.44 121.449 47.94 121.449 47.1V42.48H105.909C104.829 42.48 104.069 42.74 103.629 43.26C103.229 43.78 103.029 44.6 103.029 45.72C103.029 46.84 103.269 47.64 103.749 48.12C104.229 48.6 104.949 48.84 105.909 48.84ZM139.891 54V27.12H144.811L147.211 28.32C148.891 28 150.911 27.72 153.271 27.48C155.631 27.24 158.331 27.12 161.371 27.12H164.371C166.371 27.12 167.911 27.4 168.991 27.96C170.071 28.52 170.831 29.22 171.271 30.06C171.751 30.9 172.031 31.76 172.111 32.64C172.231 33.48 172.291 34.2 172.291 34.8V54H164.971V34.68C164.971 33.08 164.011 32.28 162.091 32.28H149.011C148.251 32.28 147.751 32.36 147.511 32.52C147.311 32.64 147.211 33 147.211 33.6V54H139.891ZM183.408 54V27.12H188.328L190.728 28.32C192.408 28 194.428 27.72 196.788 27.48C199.148 27.24 201.848 27.12 204.888 27.12H207.888C209.888 27.12 211.428 27.4 212.508 27.96C213.588 28.52 214.348 29.22 214.788 30.06C215.268 30.9 215.548 31.76 215.628 32.64C215.748 33.48 215.808 34.2 215.808 34.8V54H208.488V34.68C208.488 33.08 207.528 32.28 205.608 32.28H192.528C191.768 32.28 191.268 32.36 191.028 32.52C190.828 32.64 190.728 33 190.728 33.6V54H183.408ZM234.244 54C232.244 54 230.704 53.74 229.624 53.22C228.544 52.7 227.764 52.04 227.284 51.24C226.844 50.44 226.564 49.6 226.444 48.72C226.364 47.84 226.324 47.04 226.324 46.32V34.8C226.324 34.2 226.364 33.48 226.444 32.64C226.564 31.76 226.844 30.9 227.284 30.06C227.764 29.22 228.544 28.52 229.624 27.96C230.744 27.4 232.284 27.12 234.244 27.12H247.144C249.784 27.12 251.844 27.38 253.324 27.9C254.844 28.38 255.904 29.18 256.504 30.3C257.144 31.42 257.464 32.92 257.464 34.8V43.68H246.964C243.364 43.68 240.424 43.6 238.144 43.44C235.904 43.28 234.404 43.18 233.644 43.14V46.44C233.604 48.04 234.564 48.84 236.524 48.84H239.584C241.744 48.84 243.844 48.82 245.884 48.78C247.964 48.7 249.864 48.62 251.584 48.54C253.304 48.42 254.684 48.32 255.724 48.24L258.124 52.14C258.124 53.38 254.184 54 246.304 54H234.244ZM233.644 38.52H250.144V34.68C250.144 33.88 250.044 33.32 249.844 33C249.684 32.68 249.164 32.48 248.284 32.4C247.404 32.32 245.904 32.28 243.784 32.28H236.524C234.604 32.28 233.644 33.08 233.644 34.68V38.52ZM268.931 54V20.76L268.331 15.96H276.251V54H268.931ZM317.212 54C314.412 54 312.212 53.6 310.612 52.8C309.012 52 307.872 50.8 307.192 49.2C306.552 47.6 306.232 45.62 306.232 43.26V29.4C306.232 27.08 306.552 25.14 307.192 23.58C307.832 21.98 308.952 20.78 310.552 19.98C312.152 19.14 314.372 18.72 317.212 18.72H331.072C333.872 18.72 336.052 19.14 337.612 19.98C339.212 20.78 340.332 21.98 340.972 23.58C341.652 25.14 341.992 27.08 341.992 29.4V43.26C341.992 46.78 341.212 49.46 339.652 51.3C338.092 53.1 335.232 54 331.072 54H317.212ZM318.952 48.24H329.392C330.872 48.24 332.012 47.86 332.812 47.1C333.652 46.34 334.072 45.3 334.072 43.98V28.68C334.072 27.52 333.652 26.54 332.812 25.74C331.972 24.9 330.832 24.48 329.392 24.48H318.952C317.512 24.48 316.352 24.86 315.472 25.62C314.592 26.38 314.152 27.4 314.152 28.68V43.98C314.152 45.34 314.572 46.4 315.412 47.16C316.292 47.88 317.472 48.24 318.952 48.24ZM359.804 54V24.48L352.604 25.02L352.184 19.92L367.724 18.12V54H359.804Z" fill="#34649B"/>
</g>
<defs>
<filter id="filter0_d_7004_11966" x="3.2002" y="14.12" width="375.523" height="50.88" filterUnits="userSpaceOnUse" color-interpolation-filters="sRGB">
<feFlood flood-opacity="0" result="BackgroundImageFix"/>
<feColorMatrix in="SourceAlpha" type="matrix" values="0 0 0 0 0 0 0 0 0 0 0 0 0 0 0 0 0 0 127 0" result="hardAlpha"/>
<feOffset dx="5" dy="5"/>
<feGaussianBlur stdDeviation="3"/>
<feComposite in2="hardAlpha" operator="out"/>
<feColorMatrix type="matrix" values="0 0 0 0 1 0 0 0 0 1 0 0 0 0 1 0 0 0 1 0"/>
<feBlend mode="normal" in2="BackgroundImageFix" result="effect1_dropShadow_7004_11966"/>
<feBlend mode="normal" in="SourceGraphic" in2="effect1_dropShadow_7004_11966" result="shape"/>
</filter>
</defs>
</svg>
