<svg width="22" height="24" viewBox="0 0 22 24" fill="none" xmlns="http://www.w3.org/2000/svg">
<path d="M8.83509 23.25L8.3479 19.6603C7.90832 19.523 7.4279 19.3094 6.90665 19.0194C6.38561 18.7292 5.94373 18.4179 5.58103 18.0856L2.26759 19.5553L0.0979004 15.73L3.02009 13.5522C2.98009 13.3091 2.94728 13.0544 2.92165 12.7881C2.89603 12.5219 2.88321 12.2672 2.88321 12.0241C2.88321 11.797 2.89603 11.5517 2.92165 11.2881C2.94728 11.0244 2.98009 10.7443 3.02009 10.4478L0.0979004 8.25406L2.26759 4.49281L5.55696 5.92219C5.9678 5.58469 6.41811 5.2749 6.9079 4.99281C7.39769 4.71073 7.86967 4.5 8.32384 4.36062L8.83509 0.75H13.1651L13.6523 4.36375C14.1614 4.54917 14.6347 4.76604 15.072 5.01438C15.509 5.26271 15.934 5.56531 16.347 5.92219L19.7485 4.49281L21.9023 8.25406L18.8838 10.4944C18.9559 10.7727 18.9995 11.0356 19.0145 11.2831C19.0295 11.5308 19.037 11.7698 19.037 12C19.037 12.2142 19.0255 12.4443 19.0026 12.6903C18.9795 12.9364 18.9392 13.2172 18.8817 13.5328L21.8679 15.73L19.6979 19.5553L16.347 18.0616C15.9203 18.4259 15.4828 18.7446 15.0345 19.0175C14.5863 19.2906 14.1256 19.4969 13.6523 19.6362L13.1651 23.25H8.83509ZM9.71478 22.1922H12.251L12.7123 18.7469C13.3485 18.5802 13.9288 18.3464 14.4532 18.0453C14.9776 17.7443 15.5095 17.3373 16.0488 16.8244L19.2326 18.1941L20.4801 16.0338L17.6738 13.9431C17.7643 13.5671 17.8298 13.2253 17.8704 12.9178C17.911 12.6105 17.9313 12.3046 17.9313 12C17.9313 11.6687 17.9118 11.3575 17.8726 11.0662C17.8336 10.7748 17.7674 10.4544 17.6738 10.105L20.5282 7.96625L19.2804 5.80594L16.0251 7.17781C15.6328 6.7424 15.122 6.33469 14.4926 5.95469C13.863 5.57469 13.2617 5.34083 12.6885 5.25312L12.2854 1.80781H9.71728L9.3279 5.22906C8.66707 5.36052 8.06509 5.58073 7.52196 5.88969C6.97905 6.19885 6.44478 6.61948 5.91915 7.15156L2.71978 5.80594L1.47196 7.96625L4.27009 10.0303C4.16905 10.328 4.09696 10.6435 4.05384 10.9769C4.0105 11.3102 3.98884 11.6593 3.98884 12.0241C3.98884 12.3553 4.0105 12.6796 4.05384 12.9969C4.09696 13.3142 4.16103 13.6296 4.24603 13.9431L1.47196 16.0338L2.71978 18.1941L5.89509 16.8462C6.39196 17.3552 6.91457 17.7616 7.4629 18.0653C8.01123 18.3691 8.62488 18.6043 9.30384 18.7709L9.71478 22.1922ZM10.9407 15.0288C11.789 15.0288 12.5059 14.736 13.0913 14.1506C13.677 13.5652 13.9698 12.8483 13.9698 12C13.9698 11.1517 13.677 10.4348 13.0913 9.84937C12.5059 9.26396 11.789 8.97125 10.9407 8.97125C10.1015 8.97125 9.38696 9.26396 8.79696 9.84937C8.20696 10.4348 7.91196 11.1517 7.91196 12C7.91196 12.8483 8.20696 13.5652 8.79696 14.1506C9.38696 14.736 10.1015 15.0288 10.9407 15.0288Z" fill="#EAEAEA"/>
</svg>
