<svg width="376" height="51" viewBox="0 0 376 51" fill="none" xmlns="http://www.w3.org/2000/svg">
<g filter="url(#filter0_d_5107_15047)">
<path d="M12.18 40C9.34 40 7.12 39.6 5.52 38.8C3.92 38 2.8 36.8 2.16 35.2C1.52 33.6 1.2 31.62 1.2 29.26V15.88C1.2 12.04 2.06 9.22 3.78 7.42C5.5 5.58 8.3 4.66 12.18 4.66H30.24C33 4.66 35.1 4.82 36.54 5.14C38.02 5.42 38.76 5.72 38.76 6.04L37.56 11.02C36.88 10.9 34.86 10.78 31.5 10.66C28.18 10.5 23.34 10.42 16.98 10.42H13.92C10.72 10.42 9.12 11.84 9.12 14.68V29.98C9.12 31.34 9.46 32.4 10.14 33.16C10.86 33.88 12.12 34.24 13.92 34.24H16.38C23.02 34.24 28.16 34.18 31.8 34.06C35.48 33.9 37.76 33.74 38.64 33.58L41.1 37.54C41.1 37.74 40.76 38.04 40.08 38.44C39.44 38.84 38.24 39.2 36.48 39.52C34.72 39.84 32.18 40 28.86 40H12.18ZM50.093 40V1.12H57.413V14.32C59.093 14 61.113 13.72 63.473 13.48C65.833 13.24 68.533 13.12 71.573 13.12H74.573C76.573 13.12 78.113 13.4 79.193 13.96C80.273 14.52 81.033 15.22 81.473 16.06C81.953 16.9 82.233 17.76 82.313 18.64C82.433 19.48 82.493 20.2 82.493 20.8V40H75.173V20.68C75.173 19.08 74.213 18.28 72.293 18.28H59.213C58.453 18.28 57.953 18.36 57.713 18.52C57.513 18.64 57.413 19 57.413 19.6V40H50.093ZM101.349 40C98.3094 40 96.1094 39.3 94.7494 37.9C93.3894 36.46 92.7094 34.5 92.7094 32.02C92.7094 29.42 93.4094 27.42 94.8094 26.02C96.2494 24.62 98.4294 23.92 101.349 23.92H104.409C107.409 23.92 110.109 24 112.509 24.16C114.909 24.32 116.889 24.48 118.449 24.64V20.68C118.449 20.32 118.409 19.96 118.329 19.6C118.249 19.2 118.009 18.88 117.609 18.64C117.209 18.4 116.529 18.28 115.569 18.28H112.569C108.209 18.28 104.569 18.36 101.649 18.52C98.7294 18.64 96.7494 18.76 95.7094 18.88L95.0494 14.32C95.0494 13.76 96.5694 13.42 99.6094 13.3C102.649 13.18 107.729 13.12 114.849 13.12H117.849C119.849 13.12 121.389 13.4 122.469 13.96C123.549 14.52 124.309 15.22 124.749 16.06C125.229 16.9 125.509 17.76 125.589 18.64C125.709 19.48 125.769 20.2 125.769 20.8V40H120.849L118.509 38.8C116.829 39.08 114.809 39.36 112.449 39.64C110.089 39.88 107.389 40 104.349 40H101.349ZM102.909 34.84H116.649C117.529 34.84 118.049 34.76 118.209 34.6C118.369 34.44 118.449 33.94 118.449 33.1V28.48H102.909C101.829 28.48 101.069 28.74 100.629 29.26C100.229 29.78 100.029 30.6 100.029 31.72C100.029 32.84 100.269 33.64 100.749 34.12C101.229 34.6 101.949 34.84 102.909 34.84ZM136.891 40V13.12H141.811L144.211 14.32C145.891 14 147.911 13.72 150.271 13.48C152.631 13.24 155.331 13.12 158.371 13.12H161.371C163.371 13.12 164.911 13.4 165.991 13.96C167.071 14.52 167.831 15.22 168.271 16.06C168.751 16.9 169.031 17.76 169.111 18.64C169.231 19.48 169.291 20.2 169.291 20.8V40H161.971V20.68C161.971 19.08 161.011 18.28 159.091 18.28H146.011C145.251 18.28 144.751 18.36 144.511 18.52C144.311 18.64 144.211 19 144.211 19.6V40H136.891ZM180.408 40V13.12H185.328L187.728 14.32C189.408 14 191.428 13.72 193.788 13.48C196.148 13.24 198.848 13.12 201.888 13.12H204.888C206.888 13.12 208.428 13.4 209.508 13.96C210.588 14.52 211.348 15.22 211.788 16.06C212.268 16.9 212.548 17.76 212.628 18.64C212.748 19.48 212.808 20.2 212.808 20.8V40H205.488V20.68C205.488 19.08 204.528 18.28 202.608 18.28H189.528C188.768 18.28 188.268 18.36 188.028 18.52C187.828 18.64 187.728 19 187.728 19.6V40H180.408ZM231.244 40C229.244 40 227.704 39.74 226.624 39.22C225.544 38.7 224.764 38.04 224.284 37.24C223.844 36.44 223.564 35.6 223.444 34.72C223.364 33.84 223.324 33.04 223.324 32.32V20.8C223.324 20.2 223.364 19.48 223.444 18.64C223.564 17.76 223.844 16.9 224.284 16.06C224.764 15.22 225.544 14.52 226.624 13.96C227.744 13.4 229.284 13.12 231.244 13.12H244.144C246.784 13.12 248.844 13.38 250.324 13.9C251.844 14.38 252.904 15.18 253.504 16.3C254.144 17.42 254.464 18.92 254.464 20.8V29.68H243.964C240.364 29.68 237.424 29.6 235.144 29.44C232.904 29.28 231.404 29.18 230.644 29.14V32.44C230.604 34.04 231.564 34.84 233.524 34.84H236.584C238.744 34.84 240.844 34.82 242.884 34.78C244.964 34.7 246.864 34.62 248.584 34.54C250.304 34.42 251.684 34.32 252.724 34.24L255.124 38.14C255.124 39.38 251.184 40 243.304 40H231.244ZM230.644 24.52H247.144V20.68C247.144 19.88 247.044 19.32 246.844 19C246.684 18.68 246.164 18.48 245.284 18.4C244.404 18.32 242.904 18.28 240.784 18.28H233.524C231.604 18.28 230.644 19.08 230.644 20.68V24.52ZM265.931 40V6.76L265.331 1.96H273.251V40H265.931ZM314.212 40C311.412 40 309.212 39.6 307.612 38.8C306.012 38 304.872 36.8 304.192 35.2C303.552 33.6 303.232 31.62 303.232 29.26V15.4C303.232 13.08 303.552 11.14 304.192 9.58C304.832 7.98 305.952 6.78 307.552 5.98C309.152 5.14 311.372 4.72 314.212 4.72H328.072C330.872 4.72 333.052 5.14 334.612 5.98C336.212 6.78 337.332 7.98 337.972 9.58C338.652 11.14 338.992 13.08 338.992 15.4V29.26C338.992 32.78 338.212 35.46 336.652 37.3C335.092 39.1 332.232 40 328.072 40H314.212ZM315.952 34.24H326.392C327.872 34.24 329.012 33.86 329.812 33.1C330.652 32.34 331.072 31.3 331.072 29.98V14.68C331.072 13.52 330.652 12.54 329.812 11.74C328.972 10.9 327.832 10.48 326.392 10.48H315.952C314.512 10.48 313.352 10.86 312.472 11.62C311.592 12.38 311.152 13.4 311.152 14.68V29.98C311.152 31.34 311.572 32.4 312.412 33.16C313.292 33.88 314.472 34.24 315.952 34.24ZM356.804 40V10.48L349.604 11.02L349.184 5.92L364.724 4.12V40H356.804Z" fill="#34649B"/>
</g>
<defs>
<filter id="filter0_d_5107_15047" x="0.199951" y="0.119995" width="375.524" height="50.88" filterUnits="userSpaceOnUse" color-interpolation-filters="sRGB">
<feFlood flood-opacity="0" result="BackgroundImageFix"/>
<feColorMatrix in="SourceAlpha" type="matrix" values="0 0 0 0 0 0 0 0 0 0 0 0 0 0 0 0 0 0 127 0" result="hardAlpha"/>
<feOffset dx="5" dy="5"/>
<feGaussianBlur stdDeviation="3"/>
<feComposite in2="hardAlpha" operator="out"/>
<feColorMatrix type="matrix" values="0 0 0 0 1 0 0 0 0 1 0 0 0 0 1 0 0 0 1 0"/>
<feBlend mode="normal" in2="BackgroundImageFix" result="effect1_dropShadow_5107_15047"/>
<feBlend mode="normal" in="SourceGraphic" in2="effect1_dropShadow_5107_15047" result="shape"/>
</filter>
</defs>
</svg>
