<svg width="34" height="31" viewBox="0 0 34 31" fill="none" xmlns="http://www.w3.org/2000/svg">
<path d="M2.36037 0.97998L6.42418 9.35366L0.397217 5.01932L2.36037 0.97998Z" fill="#DEE8FF"/>
<path d="M0 5.67743L16.6372 17.6441L15.6441 20.6623L2.7805 11.4036L0 5.67743Z" fill="#DEE8FF"/>
<path d="M3.4834 12.8559L6.2639 18.5821L10.2131 21.4263H15.3922L3.4834 12.8559Z" fill="#DEE8FF"/>
<path d="M12.4589 23.045L14.4067 24.4444L13.1693 28.2266L9.2124 25.3824L12.4589 23.045Z" fill="#DEE8FF"/>
<path d="M31.6398 0.97998L27.5684 9.35366L33.603 5.01932L31.6398 0.97998Z" fill="#DEE8FF"/>
<path d="M34 5.67743L17.3628 17.6441L18.3482 20.6623L31.2195 11.4036L34 5.67743Z" fill="#DEE8FF"/>
<path d="M30.5169 12.8559L27.7364 18.5821L23.7872 21.4263H18.6082L30.5169 12.8559Z" fill="#DEE8FF"/>
<path d="M21.5414 23.045L19.5935 24.4444L20.831 28.2266L24.7878 25.3824L21.5414 23.045Z" fill="#DEE8FF"/>
<path d="M16.9962 30.98L20.2503 28.6502L16.9962 26.3052L13.7498 28.6502L16.9962 30.98Z" fill="#DEE8FF"/>
<path d="M16.9959 25.39C17.9915 25.39 18.7986 24.5907 18.7986 23.6048C18.7986 22.6189 17.9915 21.8196 16.9959 21.8196C16.0002 21.8196 15.1931 22.6189 15.1931 23.6048C15.1931 24.5907 16.0002 25.39 16.9959 25.39Z" fill="#DEE8FF"/>
</svg>
